<svg width="106" height="172" viewBox="0 0 106 172" fill="none" xmlns="http://www.w3.org/2000/svg">
<path d="M27 162.5L32 164L39 165.5L45 159L47 161L51.5 162.5L54.5 164L59.5 161L68 171H74L81.5 164V162.5L84.5 161L83.5 150.5L85.5 148V140.5L89.5 137L85.5 132.5L87.5 130V122.5L97.5 114V102V74L94 65L97.5 61.5H101.5L104.5 57L100.5 51.5L104.5 47.5V38.5L92 28.5L85.5 31V25.5L92 18.5L90 13L81 9V2.5L78.5 0.5H67H59.5V5.5L54.5 13L51.5 18.5V25.5L47 28.5L45 36L40.5 38.5L45 44.5V57H35.5V63L29.5 65L27 87L16 97.5V106L3.5 122.5L6 125.5L1.5 137L3.5 140.5H13L16 145L13 155.5L18 162.5H27Z" fill="#38A2E3" stroke="black"/>
</svg>
