<svg width="178" height="199" viewBox="0 0 178 199" fill="none" xmlns="http://www.w3.org/2000/svg">
<path d="M93 190L95.5 198L102 192.5L107.5 196L117.5 185.5V181.5L120.5 178.5L128.5 178L133.5 176V171.5L136 169V166L133 162V151.5L137 148L142.5 147.5L144 146H148.5L150.5 144L154.5 143L162.5 136L162 129L165.5 127.5L171 120L170.5 115L177 109.5L174.5 104L171 103.5L163.5 97.5L157.5 97V93L153 87L160 80.5V71.5L166 67V56.5L169.5 47L164.5 43.5L164 39L161.5 35.5L167 28V18.5L164 14.5L163 5H158.5L153 1.5L148.5 5L146 3.5L135.5 8L126.5 6.5L122.5 12.5V22L112.5 22.5L104 19.5L97 26.5L92.5 27V24.5L85.5 25L82 27H68L58.5 22L54 24H52.5L48 26L44.5 31L40.5 28.5L36 31V47.5L32 53L31 59L25.5 67V74.5L21 81L24 84.5L18.5 90V92.5L22 97L10.5 108L5 109L3.5 111L1.5 121H2.5L5.5 128L4.5 133.5L8.5 137L7.5 145.5H13L33 158.5L41.5 152L48 152.5L56.5 164.5L64.5 163.5L65.5 168L93 190Z" fill="#38A2E3" stroke="black"/>
</svg>
