<svg width="216" height="139" viewBox="0 0 216 139" fill="none" xmlns="http://www.w3.org/2000/svg">
<path d="M14 132.5L18 138L28.5 130.5L31 133L42.5 133.5L44.5 131L58.5 131.5L63 133.5L67.5 131L71 134.5L77 135L79.5 133V127.5L87 126.5L88.5 125L91.5 125.5L95 121.5L103.5 122L111 117.5L116.5 121.5L121 120L128 121.5L133 123.5L139.5 121L145.5 127L151.5 130L157.5 128.5L159 126H167L170.5 128.5L183.5 128L189 130L206.5 112.5L207.5 107.5L210 102L215 100V88.5L209.5 80.5L204 79.5L196.5 88.5H192.5L191.5 79L178 66V63L182.5 55L178 48.5L174.5 49L171.5 46.5L167 50L154.5 49L148 41.5L145.5 30.5L140.5 27L133 27.5L120 16L115 20.5L111 18.5L106 22L100.5 19.5H90.5L82 23L72 14.5L67.5 14L69 7L61 2.5L56.5 6.5L51 1.5L44 6.5L42 11.5L36 26L33 35.5L35 40V44.5L30.5 49.5L33 53.5L30.5 56.5L29.5 62L25 66.5L16 64L13 66.5L12 71H8L4.5 74.5L4 81L1 85L6.5 92L4.5 94.5V99.5L11 106.5L7.5 111L11 113.5L9.5 118.5L15.5 127.5L14 132.5Z" fill="#38A2E3" stroke="black"/>
</svg>
