<svg width="301" height="191" viewBox="0 0 301 191" fill="none" xmlns="http://www.w3.org/2000/svg">
<path d="M7 91.5L12.5 96.5L17 92.5L25 97L23.5 104L28 104.5L38 113L46.5 109.5H56.5L62 112L67 108.5L71 110.5L76 106L89 117.5L96.5 117L101.5 120.5L104 131.5L110.5 139L123 140L127.5 136.5L130.5 139L134 138.5L138.5 145L134 153V156L147.5 169L148.5 178.5H152.5L160 169.5L165.5 170.5L171 178.5V190L185 189.5V184.5L196 171L196.5 168.5L195 166.5L196 161L200.5 155H206.5L208.5 153L213 151.5L215.5 148.5L211 141.5L213 137.5L213.5 131.5L221 123L214.5 114.5L221 102.5L227 101.5L247.5 78.5L248 75L250.5 72L257 75L260.5 66.5H264.5L273 59.5L287 47L293.5 46.5L299.5 35.5L297 31.5L298 26L295 21L291.5 20.5L286 14L281.5 17L280 20L276.5 20.5L275.5 23.5L268 29.5L267 33.5L264.5 36.5H249L247 38.5H245L241 34H237L233.5 37.5H229.5L227.5 40.5H222.5L215 52L210.5 53L205 58H203L198 53L198.5 49L194.5 43.5L187 38L186.5 34.5L182.5 30V15L178.5 11L175 15L166.5 11.5H158L154.5 14.5L139 13.5L134 16L128.5 14L126.215 16.5H118L115.5 14L118.5 9.5L114.5 7L110 12L102 6L93.5 8.5L90.5 1.5L80.5 11H74.5L69.5 12L63 7.5H54.5L49 5L46 11L44.5 18L41 16.5L36.5 18.5L28.5 32H20L15.5 37L16 40.5L13.5 42.5V47.5L8 53L3.5 51.5L1 55L6 58V63L1 68V72L4.5 80L1.5 83.5L7.5 88.5L7 91.5Z" fill="#38A2E3" stroke="black"/>
</svg>
