<svg width="117" height="136" viewBox="0 0 117 136" fill="none" xmlns="http://www.w3.org/2000/svg">
<path d="M71.5 134H81.5L83.5 124L85 122L90.5 121L102 110L98.5 105.5V103L104 97.5L101 94L105.5 87.5V80L111 72L112 66L116 60.5V44L104 35.5H91L83.5 39.5L81 34.5L66 35.5L65.5 29L58 21.5L59 17L56 11.5L51 11L47.5 6.5L42 5L38 1.5L34.5 5L31 2.5H24L22.5 6.5L24 10.5L20.5 13.5L24 20L8.5 27V31.5L15 36.5L13.5 43L24 50.5L18.5 56.5V65.5L22.5 71.5L8.5 86.5L11.5 92.5L4 100L8.5 106L1 109L4 115.5H11.5L22.5 131L27 132.5L35.5 128.5L40 131L48 129.5L54 135L65 130.5L71.5 134Z" fill="#38A2E3" stroke="black"/>
</svg>
