<svg width="188" height="220" viewBox="0 0 188 220" fill="none" xmlns="http://www.w3.org/2000/svg">
<path d="M149.5 215.5L147.5 213V208L142.5 203L145 197L144.5 181.5L162 168.5L163 164.5L176 148L175.5 143L178 140.5L173.5 133V121L169.5 115.5L170 109L163 99.5L166.5 95H169.5L175 88V68L173 60.5L175.5 54.5L168.5 41L172.5 38L175.5 41L184 40.5L186.5 38L173 19.5L165.5 16.5L163 18.5L156 13V9L154 5.5V1H142.5L136 6H132.5L129.5 8.5V11.5L121.5 18L125.5 24L122 30L130.5 42L122 48L118 44.5L110.5 48L104.5 45.5L95 47L90 54L89 62.5L83 60.5L65.5 69.5L61 68.5L56.5 71.5L49 66.5L45 68.5L33 82.5L23.5 82L15 85.5L11 80.5L1 89L5 92L8.5 91.5L11 97L13.5 99.5L10.5 109.5L18 116.5L23 123.5L29.5 121.5L38 126L45 122L52 124.5L54 130L77 149.5L72 153.5L72.5 158.5L82 166.5L99.5 166L108 159.5L104.5 171.5L92.5 179.5L89.5 176L86.5 177.5L78.5 173.5L71 184.5L74.5 188L69 193.5L79 198.5L64.5 209L70.5 215.5L74 214L76.5 216L83.5 206.5L92 209L95.5 207.5L99.5 212.5L107.5 212L112.5 206.5L124.5 213L129 210L141 219L149.5 218.5V215.5Z" fill="#38A2E3" stroke="black"/>
</svg>
