<svg width="190" height="77" viewBox="0 0 190 77" fill="none" xmlns="http://www.w3.org/2000/svg">
<path d="M4 34.5L7.5 37L11 33.5L15 37L20.5 38.5L24 43L29 43.5L32 49L31 53.5L38.5 61L39 67.5L54 66.5L56.5 71.5L64 67.5H77L89 76L93.5 73.5L97.5 76L101 71L105.5 69H107L111.5 67L121 72H135L138.5 70L145.5 69.5V72L150 71.5L157 64.5L165.5 67.5L175.5 67V57.5L179.5 51.5L188.5 53L181 45.5L178 38L173 32L168 33L156.5 42.5L146.5 30.5L149 26L147 25V22L140.5 16.5L123 17L111 8L106.5 11L94.5 4.5L89.5 10L81.5 10.5L77.5 5.5L74 7L65.5 4.5L58.5 14L56 12L52.5 13.5L46.5 7L37 3.5L26 4.5L21.5 1.5L13 1L15.5 7.5L1.5 26L4 34.5Z" fill="#38A2E3" stroke="black"/>
</svg>
