<svg width="133" height="147" viewBox="0 0 133 147" fill="none" xmlns="http://www.w3.org/2000/svg">
<path d="M48.5 126L58.5 133.5L64.5 133L73 135L75.5 138L86 137L88 139.5L93.5 138L107.5 146.5L120.5 146L124.5 143V138.5L119 128.5V113.5L124.5 107L123.5 91L132 89V84.5L127.5 83L127 78L122 78.5L118 75L119.5 64.5L114.5 60L117 58L112 49L117 40H119.5L124 37L122.5 28.5L119 27L118.5 22.5H113.5L104 14L98.5 14.5L93.5 10.5L89.5 11.5L76 3L71.5 4.5L68.5 1L53.5 0.5L51 3L49.5 2.5L44.5 5.5L47 10.5L42 14.5L41.5 32.5L34.5 38L35.5 42.5L24.5 53L24 64L1.5 81.5L2 87.5L11 97.5L8 102.5L12 106.5L14.5 106L22 114V124L27.5 130.5L47.5 130L48.5 126Z" fill="#38A2E3" stroke="black"/>
</svg>
