<svg width="212" height="173" viewBox="0 0 212 173" fill="none" xmlns="http://www.w3.org/2000/svg">
<path d="M26 140.5L1.5 125L1 119L4.5 116.5L3 112L7.5 107.5L11 114L19.5 108L28 109.5L32 111L41 100L36.5 96V87.5L31.5 85L31 77.5L25.5 67L29.5 56.5L25.5 50.5L26.5 45L18 32.5L21 28.5L19 24L24 15L21.5 10L23.5 1.5L33.5 8.5L39.5 8L48 10L50.5 13L61 12L63 14.5L68.5 13L82 21.5L95.5 21L99.5 18L107 23.5L105 28V32L113.5 39L114 43.5L104 52L108 55L111.5 54.5L114 60L116.5 62.5L113.5 72.5L121 79.5L126 87L132.5 84.5L141 89L148 85L155 87.5L157 93L180 112.5L175 116.5L175.5 121.5L185 129.5L202.5 129L211 122.5L207.5 134.5L195.5 142.5L192.5 139L189.5 140.5L181.5 136.5L174 147.5L177.5 151L172 156.5L182 161.5L167.5 172L158 168.5L147 169.5L142.5 166.5L134.5 166L114.5 153L109.5 156.5L106.5 153L109.5 147.5L102.5 144L93.5 149H82.5L76 144L74 138.5L62 140.5L52 130H35L26 140.5Z" fill="#38A2E3" stroke="black"/>
</svg>
