<svg width="176" height="155" viewBox="0 0 176 155" fill="none" xmlns="http://www.w3.org/2000/svg">
<path d="M7 117L11 120.5L16 120L16.5 125L21 126.5V131L25 135.5L27 135L49.5 143L54 140L71 139.5L77 143L80 142L89.5 146L95.5 140.5L102.5 146.5L108 142H111.5L118.5 131.5L121 135.5L117 142L123.5 147.5L130 154L134 150L138.5 148L146.5 141.5V138.5L149.5 136H153L159.5 131H171V127.5L168.5 124L173 115.5V111L174.5 107.5L172.5 104L169.5 105L165.5 107L160.5 107.5L158.5 109.5L153.5 109L148.5 111.5H146L140.5 108.5L136.5 109.5L133 105L133.5 100L131 91.5L128.5 88L129.5 81L124.5 76L128.5 69.5L126.5 66.5L127.5 63L133.5 57V49.5L127 43L126.5 40L124.5 37L118 34L112.5 34.5L106.5 29L109 26L107 23.5L113.5 17L115 11L113 8H110L105 5H97L93.5 6.5L89.5 5L85.5 6.5L73.5 1.5L70 8L69.5 14.5L64 19L57 28L56 33L53 34L48.5 39.5L47.5 43.5L29 63.5L26 64L21 72.5L13 79L8.5 82H6L1 91L6 100L3.5 102L8.5 106.5L7 117Z" fill="#38A2E3" stroke="black"/>
</svg>
