<svg width="147" height="249" viewBox="0 0 147 249" fill="none" xmlns="http://www.w3.org/2000/svg">
<path d="M17.5 211.5H8.5V208.5L6.5 206V201L1.5 196L4 190L3.5 174.5L21 161.5L22 157.5L35 141L34.5 136L37 133.5L32.5 126V114L28.5 108.5L29 102L22 92.5L25.5 88H28.5L34 81V61L32 53.5L34.5 47.5L27.5 34L31.5 31L34.5 34L43 33.5L45.5 31L32 12.5L24.5 9.5L28.5 6L33.5 7.5L35 5H43L48 1.5L48.5 7.5L61.5 9L68 3.5L71 9.5L74 10L77 12L81 10L83 12V15.5L87.5 20L81 29V34L87 42L87.5 49L92.5 64L97.5 70.5L94.5 75.5L94 81L91.5 84L94.5 86L94 90.5L90.5 95.5L94 101.5L95 108.5L98 114L94.5 120.5L103 130.5H107L115.5 136L116.5 139.5L126.5 148L129.5 147.5L134 152.5H137L146 163L138 177.5L138.5 183.5L134.5 187.5H123.5L121.5 194.5L114.5 200L117.5 211L115.5 214L118.5 218.5L114.5 223L111 222L106 225.5L107.5 231.5L98.5 236.5L93 245H88.5L83 241.5L78.5 245L76 243.5L65.5 248L58 240.5L55 233L50 227L45 228L33.5 237.5L23.5 225.5L26 221L24 220V217L17.5 211.5Z" fill="#38A2E3" stroke="black"/>
</svg>
