<svg width="163" height="148" viewBox="0 0 163 148" fill="none" xmlns="http://www.w3.org/2000/svg">
<path d="M12.5 1.5L8 6L10 9L8.5 15L2 21.5L4 24L1.5 27L7.5 32.5L13 32L19.5 35L21.5 38L22 41L28.5 47.5V55L22.5 61L21.5 64.5L23.5 67.5L19.5 74L24.5 79L23.5 86L26 89.5L28.5 98L28 103L31.5 107.5L35.5 106.5L41 109.5H43.5L48.5 107L53.5 107.5L55.5 105.5L60.5 105L64.5 103L67.5 102L69.5 105.5L68 109V113.5L63.5 122L66 125.5V133.5L68 137V141L75 146.5L81.5 141L86.5 142.5L88 140H96L101 136.5L101.5 142.5L114.5 144L121 138.5L115 129L114 118L117 117L126.5 102L125.5 95.5L122.5 88L124.5 84.5V80L127.5 78.5L130.5 80L136.5 78L139.5 81L144.5 78.5L150.5 81L152 77L154 74L152 70.5L154 61L160.5 53V49.5L154.5 40L161.5 31L159 27.5L158 24L149 18L145.5 19.5L141 17L139.5 12L135 13.5L131 12L128 14.5L122 12L121 17L119 18L121 22.5L115.5 27.5L112 25L107.5 26L104 22L100.5 25H94.5H89L87 27.5H84.5L83 30L79 29.5L78 25L76 22L69 24L66 22L65 18L59.5 13L53.5 13.5V11L48.5 4.5L45 6L43 3.5L40 4.5L37.5 0.5H33.5L30 4.5H23L19.5 2L16 3.5L12.5 1.5Z" fill="#38A2E3" stroke="black"/>
</svg>
