<svg width="142" height="87" viewBox="0 0 142 87" fill="none" xmlns="http://www.w3.org/2000/svg">
<path d="M21 80.5L25 85.5L33.5 82L43 82.5L55 68.5L59 66.5L66.5 71.5L71 68.5L75.5 69.5L93 60.5L99 62.5L100 54L105 47L114.5 45.5L120.5 48L128 44.5L132 48L140.5 42L132 30L135.5 24L131.5 18L127 20L123 24L116.5 17.5L110 12L114 5.5L111.5 1.5L104.5 12H101L95.5 16.5L88.5 10.5L82.5 16L73 12L70 13L64 9.5L47 10L42.5 13L20 5L18 5.5L14 1L5.5 3L6.5 19L1 25.5V40.5L6.5 50.5V55L14 60.5L12 65V69L20.5 76L21 80.5Z" fill="#38A2E3" stroke="black"/>
</svg>
