<svg width="373" height="258" viewBox="0 0 373 258" fill="none" xmlns="http://www.w3.org/2000/svg">
<path d="M99 213L100.5 217.5L105 215.5L108.5 216.5L110 210L113 204L118.5 206.5H127L133.5 211L138.5 210H144.5L154.5 200.5L157.5 207.5L166 205L174 210.5L178.5 206L182.5 208.5L179.5 213.5L182 215.5H190L192.5 212.5L198 215L203 212.5L218.5 213.5L222 210.5H230.5L239 214L242.5 210L246.5 214V228.5L250.5 233.5L251 236.5L258.5 242.5L262.5 248L262 252L267 257H269L274.5 252L279 251L286.5 239.5H291.5L293.5 236.5H297.5L301 233H305L309 237.5H311L313 235.5H328.5L331 232.5L332 228.5L339.5 222.5L340.5 219.5L344 219L345.5 216L350 213L347.5 210.5V201.5L360 184H365L368 180L364 174L371.5 162L369 154L341.5 132L340.5 127.5L332.5 128.5L324 116.5L317.5 116L309 122.5L289 109.5H283.5L284.5 101L280.5 97.5L281.5 92L278.5 85H267.5L261 81.5L250 86L244 80.5L236 82L231.5 79.5L223 83.5L218 82L197 85L190 80.5L186 85L180.5 80.5L177 69L169 80.5L166.5 73.5L161 78H142L138 73.5V66.5L133.5 71.5L128 66.5L122 71.5L118 69L122 66.5L119 52L126 46.5L121 38.5L123.5 32L114 24.5L116 20L109.5 11.5V7.5L102 3.5L99 7.5H91.5L86.5 3.5V2L76.5 10.5V18L74.5 20.5L78.5 25L74.5 28.5V36L72.5 38.5L73.5 49L70.5 50.5V52L63 59H57L48.5 49L43.5 52L36 49L34 47L28 53.5L20 52L19 58L13.5 59.5L13 64.5L5 70.5V78.5L1.5 81L2.5 91L5 96V99L13.5 106L18.5 103L21.5 109L20 111.5H16.5L13.5 117.5L12 129L15 132.5L10.5 141.5L18.5 146.5V152.5L23 161.5L18.5 168.5L23 173L24.5 181.5L29 184.5H34.5L35.5 178L41.5 175L46.5 179.5L51 176.5L56.5 180.5L61.5 178L71 188.5L77.5 189L79.5 186.5L84 187.5L93.5 178.5L94.5 190L99 197V203.5L96.5 206L99 210V213Z" fill="#38A2E3" stroke="black"/>
</svg>
